<?xml version="1.0" standalone="no"?>
<!DOCTYPE svg PUBLIC "-//W3C//DTD SVG 20010904//EN"
 "http://www.w3.org/TR/2001/REC-SVG-20010904/DTD/svg10.dtd">
<svg version="1.0" xmlns="http://www.w3.org/2000/svg"
 width="1060.000000pt" height="1060.000000pt" viewBox="0 0 1060.000000 1060.000000"
 preserveAspectRatio="xMidYMid meet">
<metadata>
Created by potrace 1.11, written by Peter Selinger 2001-2013
</metadata>
<g transform="translate(0.000000,1060.000000) scale(0.100000,-0.100000)"
fill="#000000" stroke="none">
<path d="M4920 10589 c-403 -30 -863 -119 -1239 -240 -922 -299 -1737 -834
-2365 -1554 -336 -386 -560 -724 -785 -1186 -354 -727 -530 -1494 -531 -2305
0 -837 183 -1614 556 -2364 277 -554 599 -998 1035 -1425 383 -375 756 -648
1234 -903 755 -402 1604 -612 2475 -612 1051 0 2057 303 2930 883 1125 746
1924 1896 2234 3217 160 678 179 1434 56 2130 -149 839 -523 1674 -1044 2335
-941 1194 -2304 1917 -3818 2025 -169 12 -569 11 -738 -1z m-2901 -2929 c66
-102 181 -279 256 -395 74 -115 216 -334 315 -485 187 -288 334 -513 410 -631
25 -39 103 -159 173 -267 71 -108 207 -318 304 -467 96 -148 188 -290 205
-315 l29 -45 -54 -50 c-616 -570 -705 -651 -711 -644 -1 2 -38 65 -81 139
-138 241 -330 573 -390 675 -32 55 -91 156 -130 225 -40 69 -98 170 -130 225
-140 242 -204 351 -298 515 -55 96 -111 191 -124 210 -31 46 -30 52 17 591 39
449 70 848 70 898 0 34 0 34 139 -179z m6685 -25 c9 -110 28 -346 42 -525 14
-179 33 -411 42 -516 l17 -191 -97 -169 c-205 -355 -308 -533 -378 -654 -41
-69 -97 -165 -125 -215 -87 -150 -205 -354 -264 -456 -31 -53 -114 -198 -186
-323 -71 -124 -133 -226 -136 -226 -7 0 -113 97 -554 505 -66 61 -139 129
-163 151 l-43 39 85 130 c124 190 377 579 406 625 14 21 72 112 130 200 58 89
125 193 150 231 25 38 104 160 175 270 138 212 167 256 313 481 51 79 172 265
268 413 97 149 201 309 232 357 31 48 59 84 63 80 3 -4 13 -97 23 -207z
m-2459 -2435 c380 -365 740 -711 800 -770 127 -123 345 -333 458 -440 l77 -75
-2 -597 -3 -597 -125 122 c-69 67 -431 421 -805 787 -374 365 -779 761 -900
880 -378 372 -428 419 -441 412 -11 -6 -708 -693 -1609 -1584 -499 -494 -670
-658 -672 -645 -5 28 -35 1115 -32 1142 3 25 81 105 439 449 239 231 498 480
575 555 77 74 201 194 275 265 238 229 399 385 644 621 130 127 272 262 314
302 l77 72 120 -118 c66 -65 431 -417 810 -781z"/>
</g>
</svg>
